<svg width="32" height="32" viewBox="0 0 32 32" fill="none" xmlns="http://www.w3.org/2000/svg">
<mask id="mask0_478_5560" style="mask-type:alpha" maskUnits="userSpaceOnUse" x="0" y="0" width="32" height="32">
<rect width="32" height="32" fill="#D9D9D9"/>
</mask>
<g mask="url(#mask0_478_5560)">
<path d="M15.9996 17.8667L9.46624 24.4001C9.2218 24.6445 8.91069 24.7667 8.53291 24.7667C8.15513 24.7667 7.84402 24.6445 7.59958 24.4001C7.35513 24.1556 7.23291 23.8445 7.23291 23.4667C7.23291 23.089 7.35513 22.7778 7.59958 22.5334L14.1329 16.0001L7.59958 9.46673C7.35513 9.22229 7.23291 8.91118 7.23291 8.5334C7.23291 8.15562 7.35513 7.84451 7.59958 7.60007C7.84402 7.35562 8.15513 7.2334 8.53291 7.2334C8.91069 7.2334 9.2218 7.35562 9.46624 7.60007L15.9996 14.1334L22.5329 7.60007C22.7774 7.35562 23.0885 7.2334 23.4662 7.2334C23.844 7.2334 24.1551 7.35562 24.3996 7.60007C24.644 7.84451 24.7662 8.15562 24.7662 8.5334C24.7662 8.91118 24.644 9.22229 24.3996 9.46673L17.8662 16.0001L24.3996 22.5334C24.644 22.7778 24.7662 23.089 24.7662 23.4667C24.7662 23.8445 24.644 24.1556 24.3996 24.4001C24.1551 24.6445 23.844 24.7667 23.4662 24.7667C23.0885 24.7667 22.7774 24.6445 22.5329 24.4001L15.9996 17.8667Z" fill="#1C1B1F"/>
</g>
</svg>
