<svg width="64" height="32" viewBox="0 0 64 32" fill="none" xmlns="http://www.w3.org/2000/svg">
<g clip-path="url(#clip0_1559_1721)">
<rect width="64" height="32" rx="16" fill="#F5DEDD"/>
<mask id="mask0_1559_1721" style="mask-type:alpha" maskUnits="userSpaceOnUse" x="20" y="4" width="24" height="24">
<rect x="20" y="4" width="24" height="24" fill="#D9D9D9"/>
</mask>
<g mask="url(#mask0_1559_1721)">
<path d="M41 16.9999H39C38.7167 16.9999 38.4792 16.9041 38.2875 16.7124C38.0958 16.5208 38 16.2833 38 15.9999C38 15.7166 38.0958 15.4791 38.2875 15.2874C38.4792 15.0958 38.7167 14.9999 39 14.9999H41C41.2833 14.9999 41.5208 15.0958 41.7125 15.2874C41.9042 15.4791 42 15.7166 42 15.9999C42 16.2833 41.9042 16.5208 41.7125 16.7124C41.5208 16.9041 41.2833 16.9999 41 16.9999ZM36.6 20.7999C36.7667 20.5666 36.9833 20.4333 37.25 20.3999C37.5167 20.3666 37.7667 20.4333 38 20.5999L39.6 21.7999C39.8333 21.9666 39.9667 22.1833 40 22.4499C40.0333 22.7166 39.9667 22.9666 39.8 23.1999C39.6333 23.4333 39.4167 23.5666 39.15 23.5999C38.8833 23.6333 38.6333 23.5666 38.4 23.3999L36.8 22.1999C36.5667 22.0333 36.4333 21.8166 36.4 21.5499C36.3667 21.2833 36.4333 21.0333 36.6 20.7999ZM39.6 10.1999L38 11.3999C37.7667 11.5666 37.5167 11.6333 37.25 11.5999C36.9833 11.5666 36.7667 11.4333 36.6 11.1999C36.4333 10.9666 36.3667 10.7166 36.4 10.4499C36.4333 10.1833 36.5667 9.9666 36.8 9.79993L38.4 8.59993C38.6333 8.43327 38.8833 8.3666 39.15 8.39993C39.4167 8.43327 39.6333 8.5666 39.8 8.79993C39.9667 9.03327 40.0333 9.28327 40 9.54993C39.9667 9.8166 39.8333 10.0333 39.6 10.1999ZM25 18.9999H24C23.45 18.9999 22.9792 18.8041 22.5875 18.4124C22.1958 18.0208 22 17.5499 22 16.9999V14.9999C22 14.4499 22.1958 13.9791 22.5875 13.5874C22.9792 13.1958 23.45 12.9999 24 12.9999H28L31.475 10.8999C31.8083 10.6999 32.1458 10.6999 32.4875 10.8999C32.8292 11.0999 33 11.3916 33 11.7749V20.2249C33 20.6083 32.8292 20.8999 32.4875 21.0999C32.1458 21.2999 31.8083 21.2999 31.475 21.0999L28 18.9999H27V21.9999C27 22.2833 26.9042 22.5208 26.7125 22.7124C26.5208 22.9041 26.2833 22.9999 26 22.9999C25.7167 22.9999 25.4792 22.9041 25.2875 22.7124C25.0958 22.5208 25 22.2833 25 21.9999V18.9999ZM31 18.4499V13.5499L28.55 14.9999H24V16.9999H28.55L31 18.4499ZM34 19.3499V12.6499C34.45 13.0499 34.8125 13.5374 35.0875 14.1124C35.3625 14.6874 35.5 15.3166 35.5 15.9999C35.5 16.6833 35.3625 17.3124 35.0875 17.8874C34.8125 18.4624 34.45 18.9499 34 19.3499Z" fill="#E1203E"/>
</g>
</g>
<defs>
<clipPath id="clip0_1559_1721">
<rect width="64" height="32" rx="16" fill="white"/>
</clipPath>
</defs>
</svg>
