<svg width="65" height="32" viewBox="0 0 65 32" fill="none" xmlns="http://www.w3.org/2000/svg">
<mask id="mask0_1559_1297" style="mask-type:alpha" maskUnits="userSpaceOnUse" x="20" y="4" width="25" height="24">
<rect x="20.667" y="4" width="24" height="24" fill="#D9D9D9"/>
</mask>
<g mask="url(#mask0_1559_1297)">
<path d="M30.167 20C28.3503 20 26.8128 19.3708 25.5545 18.1125C24.2962 16.8542 23.667 15.3167 23.667 13.5C23.667 11.6833 24.2962 10.1458 25.5545 8.8875C26.8128 7.62917 28.3503 7 30.167 7C31.9837 7 33.5212 7.62917 34.7795 8.8875C36.0378 10.1458 36.667 11.6833 36.667 13.5C36.667 14.2333 36.5503 14.925 36.317 15.575C36.0837 16.225 35.767 16.8 35.367 17.3L40.967 22.9C41.1503 23.0833 41.242 23.3167 41.242 23.6C41.242 23.8833 41.1503 24.1167 40.967 24.3C40.7837 24.4833 40.5503 24.575 40.267 24.575C39.9837 24.575 39.7503 24.4833 39.567 24.3L33.967 18.7C33.467 19.1 32.892 19.4167 32.242 19.65C31.592 19.8833 30.9003 20 30.167 20ZM30.167 18C31.417 18 32.4795 17.5625 33.3545 16.6875C34.2295 15.8125 34.667 14.75 34.667 13.5C34.667 12.25 34.2295 11.1875 33.3545 10.3125C32.4795 9.4375 31.417 9 30.167 9C28.917 9 27.8545 9.4375 26.9795 10.3125C26.1045 11.1875 25.667 12.25 25.667 13.5C25.667 14.75 26.1045 15.8125 26.9795 16.6875C27.8545 17.5625 28.917 18 30.167 18Z" fill="#1C1B1F"/>
</g>
</svg>
