<svg width="25" height="24" viewBox="0 0 25 24" fill="none" xmlns="http://www.w3.org/2000/svg">
<mask id="mask0_1559_677" style="mask-type:alpha" maskUnits="userSpaceOnUse" x="0" y="0" width="25" height="24">
<rect x="0.666504" width="24" height="24" fill="#D9D9D9"/>
</mask>
<g mask="url(#mask0_1559_677)">
<path d="M10.1665 16C8.34984 16 6.81234 15.3708 5.554 14.1125C4.29567 12.8542 3.6665 11.3167 3.6665 9.5C3.6665 7.68333 4.29567 6.14583 5.554 4.8875C6.81234 3.62917 8.34984 3 10.1665 3C11.9832 3 13.5207 3.62917 14.779 4.8875C16.0373 6.14583 16.6665 7.68333 16.6665 9.5C16.6665 10.2333 16.5498 10.925 16.3165 11.575C16.0832 12.225 15.7665 12.8 15.3665 13.3L20.9665 18.9C21.1498 19.0833 21.2415 19.3167 21.2415 19.6C21.2415 19.8833 21.1498 20.1167 20.9665 20.3C20.7832 20.4833 20.5498 20.575 20.2665 20.575C19.9832 20.575 19.7498 20.4833 19.5665 20.3L13.9665 14.7C13.4665 15.1 12.8915 15.4167 12.2415 15.65C11.5915 15.8833 10.8998 16 10.1665 16ZM10.1665 14C11.4165 14 12.479 13.5625 13.354 12.6875C14.229 11.8125 14.6665 10.75 14.6665 9.5C14.6665 8.25 14.229 7.1875 13.354 6.3125C12.479 5.4375 11.4165 5 10.1665 5C8.9165 5 7.854 5.4375 6.979 6.3125C6.104 7.1875 5.6665 8.25 5.6665 9.5C5.6665 10.75 6.104 11.8125 6.979 12.6875C7.854 13.5625 8.9165 14 10.1665 14Z" fill="#E1203E"/>
</g>
</svg>
