<svg width="10" height="10" viewBox="0 0 10 10" fill="none" xmlns="http://www.w3.org/2000/svg">
<path d="M4.9998 6.39995L2.0998 9.29995C1.91647 9.48328 1.68314 9.57495 1.3998 9.57495C1.11647 9.57495 0.883138 9.48328 0.699805 9.29995C0.516471 9.11662 0.424805 8.88329 0.424805 8.59995C0.424805 8.31662 0.516471 8.08329 0.699805 7.89995L3.5998 4.99995L0.699805 2.12495C0.516471 1.94162 0.424805 1.70828 0.424805 1.42495C0.424805 1.14162 0.516471 0.908285 0.699805 0.724951C0.883138 0.541618 1.11647 0.449951 1.3998 0.449951C1.68314 0.449951 1.91647 0.541618 2.0998 0.724951L4.9998 3.62495L7.87481 0.724951C8.05814 0.541618 8.29147 0.449951 8.57481 0.449951C8.85814 0.449951 9.09147 0.541618 9.27481 0.724951C9.4748 0.924951 9.57481 1.16245 9.57481 1.43745C9.57481 1.71245 9.4748 1.94162 9.27481 2.12495L6.37481 4.99995L9.27481 7.89995C9.45814 8.08329 9.54981 8.31662 9.54981 8.59995C9.54981 8.88329 9.45814 9.11662 9.27481 9.29995C9.07481 9.49995 8.83731 9.59995 8.56231 9.59995C8.28731 9.59995 8.05814 9.49995 7.87481 9.29995L4.9998 6.39995Z" fill="white"/>
</svg>
