<svg width="25" height="24" viewBox="0 0 25 24" fill="none" xmlns="http://www.w3.org/2000/svg">
<mask id="mask0_1498_944" style="mask-type:alpha" maskUnits="userSpaceOnUse" x="0" y="0" width="25" height="24">
<rect x="0.333008" width="24" height="24" fill="#D9D9D9"/>
</mask>
<g mask="url(#mask0_1498_944)">
<path d="M6.25801 21C5.87467 21 5.50384 20.8667 5.14551 20.6C4.78717 20.3333 4.54967 20.0083 4.43301 19.625C4.01634 18.225 3.67467 17.0125 3.40801 15.9875C3.14134 14.9625 2.92884 14.0625 2.77051 13.2875C2.61217 12.5125 2.49967 11.825 2.43301 11.225C2.36634 10.625 2.33301 10.05 2.33301 9.5C2.33301 7.96667 2.86634 6.66667 3.93301 5.6C4.99967 4.53333 6.29967 4 7.83301 4H12.833C13.283 3.4 13.8538 2.91667 14.5455 2.55C15.2372 2.18333 15.9997 2 16.833 2C17.2497 2 17.6038 2.14583 17.8955 2.4375C18.1872 2.72917 18.333 3.08333 18.333 3.5C18.333 3.6 18.3205 3.7 18.2955 3.8C18.2705 3.9 18.2413 3.99167 18.208 4.075C18.1413 4.25833 18.0788 4.44167 18.0205 4.625C17.9622 4.80833 17.9163 5.00833 17.883 5.225L20.158 7.5H21.333C21.6163 7.5 21.8538 7.59583 22.0455 7.7875C22.2372 7.97917 22.333 8.21667 22.333 8.5V13.75C22.333 13.9667 22.2705 14.1583 22.1455 14.325C22.0205 14.4917 21.8497 14.6167 21.633 14.7L19.508 15.4L18.258 19.575C18.1247 20.0083 17.883 20.3542 17.533 20.6125C17.183 20.8708 16.783 21 16.333 21H14.333C13.783 21 13.3122 20.8042 12.9205 20.4125C12.5288 20.0208 12.333 19.55 12.333 19H10.333C10.333 19.55 10.1372 20.0208 9.74551 20.4125C9.35384 20.8042 8.88301 21 8.33301 21H6.25801ZM6.33301 19H8.33301V17H14.333V19H16.333L17.883 13.85L20.333 13.025V9.5H19.333L15.833 6C15.833 5.66667 15.8538 5.34167 15.8955 5.025C15.9372 4.70833 15.9997 4.4 16.083 4.1C15.5997 4.23333 15.1747 4.4625 14.808 4.7875C14.4413 5.1125 14.1747 5.51667 14.008 6H7.83301C6.86634 6 6.04134 6.34167 5.35801 7.025C4.67467 7.70833 4.33301 8.53333 4.33301 9.5C4.33301 10.1833 4.50801 11.3542 4.85801 13.0125C5.20801 14.6708 5.69967 16.6667 6.33301 19ZM16.333 11C16.6163 11 16.8538 10.9042 17.0455 10.7125C17.2372 10.5208 17.333 10.2833 17.333 10C17.333 9.71667 17.2372 9.47917 17.0455 9.2875C16.8538 9.09583 16.6163 9 16.333 9C16.0497 9 15.8122 9.09583 15.6205 9.2875C15.4288 9.47917 15.333 9.71667 15.333 10C15.333 10.2833 15.4288 10.5208 15.6205 10.7125C15.8122 10.9042 16.0497 11 16.333 11ZM12.333 9C12.6163 9 12.8538 8.90417 13.0455 8.7125C13.2372 8.52083 13.333 8.28333 13.333 8C13.333 7.71667 13.2372 7.47917 13.0455 7.2875C12.8538 7.09583 12.6163 7 12.333 7H9.33301C9.04967 7 8.81217 7.09583 8.62051 7.2875C8.42884 7.47917 8.33301 7.71667 8.33301 8C8.33301 8.28333 8.42884 8.52083 8.62051 8.7125C8.81217 8.90417 9.04967 9 9.33301 9H12.333Z" fill="#1C1B1F"/>
</g>
</svg>
