<svg width="62" height="62" viewBox="0 0 62 62" fill="none" xmlns="http://www.w3.org/2000/svg">
<g filter="url(#filter0_dd_268_5705)">
<g clip-path="url(#clip0_268_5705)">
<rect x="11" y="7" width="40" height="40" rx="20" fill="#F5DEDD"/>
<mask id="mask0_268_5705" style="mask-type:alpha" maskUnits="userSpaceOnUse" x="19" y="15" width="24" height="24">
<rect x="19" y="15" width="24" height="24" fill="#D9D9D9"/>
</mask>
<g mask="url(#mask0_268_5705)">
<path d="M31 36C28.9 36 27.0417 35.3625 25.425 34.0875C23.8083 32.8125 22.7583 31.1833 22.275 29.2C22.2083 28.95 22.2583 28.7208 22.425 28.5125C22.5917 28.3042 22.8167 28.1833 23.1 28.15C23.3667 28.1167 23.6083 28.1667 23.825 28.3C24.0417 28.4333 24.1917 28.6333 24.275 28.9C24.675 30.4 25.5 31.625 26.75 32.575C28 33.525 29.4167 34 31 34C32.95 34 34.6042 33.3208 35.9625 31.9625C37.3208 30.6042 38 28.95 38 27C38 25.05 37.3208 23.3958 35.9625 22.0375C34.6042 20.6792 32.95 20 31 20C29.85 20 28.775 20.2667 27.775 20.8C26.775 21.3333 25.9333 22.0667 25.25 23H27C27.2833 23 27.5208 23.0958 27.7125 23.2875C27.9042 23.4792 28 23.7167 28 24C28 24.2833 27.9042 24.5208 27.7125 24.7125C27.5208 24.9042 27.2833 25 27 25H23C22.7167 25 22.4792 24.9042 22.2875 24.7125C22.0958 24.5208 22 24.2833 22 24V20C22 19.7167 22.0958 19.4792 22.2875 19.2875C22.4792 19.0958 22.7167 19 23 19C23.2833 19 23.5208 19.0958 23.7125 19.2875C23.9042 19.4792 24 19.7167 24 20V21.35C24.85 20.2833 25.8875 19.4583 27.1125 18.875C28.3375 18.2917 29.6333 18 31 18C32.25 18 33.4208 18.2375 34.5125 18.7125C35.6042 19.1875 36.5542 19.8292 37.3625 20.6375C38.1708 21.4458 38.8125 22.3958 39.2875 23.4875C39.7625 24.5792 40 25.75 40 27C40 28.25 39.7625 29.4208 39.2875 30.5125C38.8125 31.6042 38.1708 32.5542 37.3625 33.3625C36.5542 34.1708 35.6042 34.8125 34.5125 35.2875C33.4208 35.7625 32.25 36 31 36ZM32 26.6L34.5 29.1C34.6833 29.2833 34.775 29.5167 34.775 29.8C34.775 30.0833 34.6833 30.3167 34.5 30.5C34.3167 30.6833 34.0833 30.775 33.8 30.775C33.5167 30.775 33.2833 30.6833 33.1 30.5L30.3 27.7C30.2 27.6 30.125 27.4875 30.075 27.3625C30.025 27.2375 30 27.1083 30 26.975V23C30 22.7167 30.0958 22.4792 30.2875 22.2875C30.4792 22.0958 30.7167 22 31 22C31.2833 22 31.5208 22.0958 31.7125 22.2875C31.9042 22.4792 32 22.7167 32 23V26.6Z" fill="#E1203E"/>
</g>
</g>
</g>
<defs>
<filter id="filter0_dd_268_5705" x="0" y="0" width="62" height="62" filterUnits="userSpaceOnUse" color-interpolation-filters="sRGB">
<feFlood flood-opacity="0" result="BackgroundImageFix"/>
<feColorMatrix in="SourceAlpha" type="matrix" values="0 0 0 0 0 0 0 0 0 0 0 0 0 0 0 0 0 0 127 0" result="hardAlpha"/>
<feOffset dy="1"/>
<feGaussianBlur stdDeviation="1.5"/>
<feColorMatrix type="matrix" values="0 0 0 0 0 0 0 0 0 0 0 0 0 0 0 0 0 0 0.3 0"/>
<feBlend mode="normal" in2="BackgroundImageFix" result="effect1_dropShadow_268_5705"/>
<feColorMatrix in="SourceAlpha" type="matrix" values="0 0 0 0 0 0 0 0 0 0 0 0 0 0 0 0 0 0 127 0" result="hardAlpha"/>
<feMorphology radius="3" operator="dilate" in="SourceAlpha" result="effect2_dropShadow_268_5705"/>
<feOffset dy="4"/>
<feGaussianBlur stdDeviation="4"/>
<feColorMatrix type="matrix" values="0 0 0 0 0 0 0 0 0 0 0 0 0 0 0 0 0 0 0.15 0"/>
<feBlend mode="normal" in2="effect1_dropShadow_268_5705" result="effect2_dropShadow_268_5705"/>
<feBlend mode="normal" in="SourceGraphic" in2="effect2_dropShadow_268_5705" result="shape"/>
</filter>
<clipPath id="clip0_268_5705">
<rect x="11" y="7" width="40" height="40" rx="20" fill="white"/>
</clipPath>
</defs>
</svg>
