<svg width="65" height="32" viewBox="0 0 65 32" fill="none" xmlns="http://www.w3.org/2000/svg">
<g clip-path="url(#clip0_1498_926)">
<rect x="0.666504" width="64" height="32" rx="16" fill="#F5DEDD"/>
<mask id="mask0_1498_926" style="mask-type:alpha" maskUnits="userSpaceOnUse" x="20" y="4" width="25" height="24">
<rect x="20.6665" y="4" width="24" height="24" fill="#D9D9D9"/>
</mask>
<g mask="url(#mask0_1498_926)">
<path d="M30.1665 20C28.3498 20 26.8123 19.3708 25.554 18.1125C24.2957 16.8542 23.6665 15.3167 23.6665 13.5C23.6665 11.6833 24.2957 10.1458 25.554 8.8875C26.8123 7.62917 28.3498 7 30.1665 7C31.9832 7 33.5207 7.62917 34.779 8.8875C36.0373 10.1458 36.6665 11.6833 36.6665 13.5C36.6665 14.2333 36.5498 14.925 36.3165 15.575C36.0832 16.225 35.7665 16.8 35.3665 17.3L40.9665 22.9C41.1498 23.0833 41.2415 23.3167 41.2415 23.6C41.2415 23.8833 41.1498 24.1167 40.9665 24.3C40.7832 24.4833 40.5498 24.575 40.2665 24.575C39.9832 24.575 39.7498 24.4833 39.5665 24.3L33.9665 18.7C33.4665 19.1 32.8915 19.4167 32.2415 19.65C31.5915 19.8833 30.8998 20 30.1665 20ZM30.1665 18C31.4165 18 32.479 17.5625 33.354 16.6875C34.229 15.8125 34.6665 14.75 34.6665 13.5C34.6665 12.25 34.229 11.1875 33.354 10.3125C32.479 9.4375 31.4165 9 30.1665 9C28.9165 9 27.854 9.4375 26.979 10.3125C26.104 11.1875 25.6665 12.25 25.6665 13.5C25.6665 14.75 26.104 15.8125 26.979 16.6875C27.854 17.5625 28.9165 18 30.1665 18Z" fill="#E1203E"/>
</g>
</g>
<defs>
<clipPath id="clip0_1498_926">
<rect x="0.666504" width="64" height="32" rx="16" fill="white"/>
</clipPath>
</defs>
</svg>
