<svg width="20" height="20" viewBox="0 0 20 20" fill="none" xmlns="http://www.w3.org/2000/svg">
<mask id="mask0_268_6009" style="mask-type:alpha" maskUnits="userSpaceOnUse" x="0" y="0" width="20" height="20">
<rect width="20" height="20" fill="#D9D9D9"/>
</mask>
<g mask="url(#mask0_268_6009)">
<path d="M10.5002 10.0001L7.25016 6.75008C7.09738 6.5973 7.021 6.40286 7.021 6.16675C7.021 5.93064 7.09738 5.73619 7.25016 5.58341C7.40294 5.43064 7.59738 5.35425 7.8335 5.35425C8.06961 5.35425 8.26405 5.43064 8.41683 5.58341L12.2502 9.41675C12.3335 9.50008 12.3925 9.59036 12.4272 9.68758C12.462 9.7848 12.4793 9.88897 12.4793 10.0001C12.4793 10.1112 12.462 10.2154 12.4272 10.3126C12.3925 10.4098 12.3335 10.5001 12.2502 10.5834L8.41683 14.4167C8.26405 14.5695 8.06961 14.6459 7.8335 14.6459C7.59738 14.6459 7.40294 14.5695 7.25016 14.4167C7.09738 14.264 7.021 14.0695 7.021 13.8334C7.021 13.5973 7.09738 13.4029 7.25016 13.2501L10.5002 10.0001Z" fill="#1C1B1F"/>
</g>
</svg>
