<svg width="24" height="24" viewBox="0 0 24 24" fill="none" xmlns="http://www.w3.org/2000/svg">
<mask id="mask0_313_5050" style="mask-type:alpha" maskUnits="userSpaceOnUse" x="0" y="0" width="24" height="24">
<rect width="24" height="24" fill="#D9D9D9"/>
</mask>
<g mask="url(#mask0_313_5050)">
<path d="M12 5.5C12.65 4.71667 13.45 4.10417 14.4 3.6625C15.35 3.22083 16.35 3 17.4 3C19.2333 3 20.7917 3.64167 22.075 4.925C23.3583 6.20833 24 7.76667 24 9.6C24 9.91667 23.9792 10.2292 23.9375 10.5375C23.8958 10.8458 23.8333 11.15 23.75 11.45C23.6667 11.7333 23.5083 11.9583 23.275 12.125C23.0417 12.2917 22.7833 12.3333 22.5 12.25C22.2333 12.1833 22.0292 12.0333 21.8875 11.8C21.7458 11.5667 21.7167 11.3167 21.8 11.05C21.8667 10.8167 21.9167 10.5792 21.95 10.3375C21.9833 10.0958 22 9.85 22 9.6C22 8.31667 21.5542 7.22917 20.6625 6.3375C19.7708 5.44583 18.6833 5 17.4 5C16.4833 5 15.65 5.25417 14.9 5.7625C14.15 6.27083 13.475 6.875 12.875 7.575C12.6417 7.85833 12.35 8 12 8C11.65 8 11.3583 7.85833 11.125 7.575C10.5417 6.875 9.87083 6.27083 9.1125 5.7625C8.35417 5.25417 7.51667 5 6.6 5C5.31667 5 4.22917 5.44583 3.3375 6.3375C2.44583 7.22917 2 8.31667 2 9.6C2 9.85 2.01667 10.0958 2.05 10.3375C2.08333 10.5792 2.13333 10.8167 2.2 11.05C2.26667 11.3 2.22917 11.5375 2.0875 11.7625C1.94583 11.9875 1.75 12.1333 1.5 12.2C1.21667 12.2833 0.958333 12.25 0.725 12.1C0.491667 11.95 0.333333 11.7333 0.25 11.45C0.166667 11.15 0.104167 10.8458 0.0625 10.5375C0.0208333 10.2292 0 9.91667 0 9.6C0 7.76667 0.641667 6.20833 1.925 4.925C3.20833 3.64167 4.76667 3 6.6 3C7.65 3 8.65 3.22083 9.6 3.6625C10.55 4.10417 11.35 4.71667 12 5.5ZM1 22C0.716667 22 0.479167 21.9042 0.2875 21.7125C0.0958333 21.5208 0 21.2833 0 21V20.425C0 19.9083 0.191667 19.4583 0.575 19.075C0.958333 18.6917 1.48333 18.4083 2.15 18.225C2.58333 18.0917 2.975 18.0167 3.325 18C3.675 17.9833 4.05 17.9917 4.45 18.025C4.61667 18.0417 4.7375 18.1208 4.8125 18.2625C4.8875 18.4042 4.89167 18.55 4.825 18.7C4.70833 18.9667 4.625 19.2375 4.575 19.5125C4.525 19.7875 4.5 20.075 4.5 20.375V21C4.5 21.2833 4.40417 21.5208 4.2125 21.7125C4.02083 21.9042 3.78333 22 3.5 22H1ZM6 21V20.375C6 19.2917 6.55417 18.4167 7.6625 17.75C8.77083 17.0833 10.2167 16.75 12 16.75C13.8 16.75 15.25 17.0833 16.35 17.75C17.45 18.4167 18 19.2917 18 20.375V21C18 21.2833 17.9042 21.5208 17.7125 21.7125C17.5208 21.9042 17.2833 22 17 22H7C6.71667 22 6.47917 21.9042 6.2875 21.7125C6.09583 21.5208 6 21.2833 6 21ZM20.5 22C20.2167 22 19.9792 21.9042 19.7875 21.7125C19.5958 21.5208 19.5 21.2833 19.5 21V20.375C19.5 20.075 19.475 19.7875 19.425 19.5125C19.375 19.2375 19.2917 18.9667 19.175 18.7C19.1083 18.55 19.1125 18.4042 19.1875 18.2625C19.2625 18.1208 19.3833 18.0417 19.55 18.025C19.95 17.9917 20.325 17.9833 20.675 18C21.025 18.0167 21.4167 18.0917 21.85 18.225C22.5167 18.4083 23.0417 18.6917 23.425 19.075C23.8083 19.4583 24 19.9083 24 20.425V21C24 21.2833 23.9042 21.5208 23.7125 21.7125C23.5208 21.9042 23.2833 22 23 22H20.5ZM12 18.75C11.05 18.75 10.2 18.875 9.45 19.125C8.7 19.375 8.25833 19.6667 8.125 20H15.9C15.75 19.6667 15.3042 19.375 14.5625 19.125C13.8208 18.875 12.9667 18.75 12 18.75ZM4 17C3.45 17 2.97917 16.8042 2.5875 16.4125C2.19583 16.0208 2 15.55 2 15C2 14.4333 2.19583 13.9583 2.5875 13.575C2.97917 13.1917 3.45 13 4 13C4.56667 13 5.04167 13.1917 5.425 13.575C5.80833 13.9583 6 14.4333 6 15C6 15.55 5.80833 16.0208 5.425 16.4125C5.04167 16.8042 4.56667 17 4 17ZM20 17C19.45 17 18.9792 16.8042 18.5875 16.4125C18.1958 16.0208 18 15.55 18 15C18 14.4333 18.1958 13.9583 18.5875 13.575C18.9792 13.1917 19.45 13 20 13C20.5667 13 21.0417 13.1917 21.425 13.575C21.8083 13.9583 22 14.4333 22 15C22 15.55 21.8083 16.0208 21.425 16.4125C21.0417 16.8042 20.5667 17 20 17ZM12 16C11.1667 16 10.4583 15.7083 9.875 15.125C9.29167 14.5417 9 13.8333 9 13C9 12.15 9.29167 11.4375 9.875 10.8625C10.4583 10.2875 11.1667 10 12 10C12.85 10 13.5625 10.2875 14.1375 10.8625C14.7125 11.4375 15 12.15 15 13C15 13.8333 14.7125 14.5417 14.1375 15.125C13.5625 15.7083 12.85 16 12 16ZM12 12C11.7167 12 11.4792 12.0958 11.2875 12.2875C11.0958 12.4792 11 12.7167 11 13C11 13.2833 11.0958 13.5208 11.2875 13.7125C11.4792 13.9042 11.7167 14 12 14C12.2833 14 12.5208 13.9042 12.7125 13.7125C12.9042 13.5208 13 13.2833 13 13C13 12.7167 12.9042 12.4792 12.7125 12.2875C12.5208 12.0958 12.2833 12 12 12Z" fill="#1C1B1F"/>
</g>
</svg>
