<svg width="24" height="24" viewBox="0 0 24 24" fill="none" xmlns="http://www.w3.org/2000/svg">
<mask id="mask0_313_5045" style="mask-type:alpha" maskUnits="userSpaceOnUse" x="0" y="0" width="24" height="24">
<rect width="24" height="24" fill="#D9D9D9"/>
</mask>
<g mask="url(#mask0_313_5045)">
<path d="M11.8752 20C11.9419 20 12.0086 19.9833 12.0752 19.95C12.1419 19.9167 12.1919 19.8833 12.2252 19.85L20.4252 11.65C20.6252 11.45 20.7711 11.225 20.8627 10.975C20.9544 10.725 21.0002 10.475 21.0002 10.225C21.0002 9.95833 20.9544 9.70417 20.8627 9.4625C20.7711 9.22083 20.6252 9.00833 20.4252 8.825L16.1752 4.575C15.9919 4.375 15.7794 4.22917 15.5377 4.1375C15.2961 4.04583 15.0419 4 14.7752 4C14.5252 4 14.2752 4.04583 14.0252 4.1375C13.7752 4.22917 13.5502 4.375 13.3502 4.575L13.0752 4.85L14.9252 6.725C15.1752 6.95833 15.3586 7.225 15.4752 7.525C15.5919 7.825 15.6502 8.14167 15.6502 8.475C15.6502 9.175 15.4127 9.7625 14.9377 10.2375C14.4627 10.7125 13.8752 10.95 13.1752 10.95C12.8419 10.95 12.5211 10.8917 12.2127 10.775C11.9044 10.6583 11.6336 10.4833 11.4002 10.25L9.52523 8.4L5.15023 12.775C5.10023 12.825 5.06273 12.8792 5.03773 12.9375C5.01273 12.9958 5.00023 13.0583 5.00023 13.125C5.00023 13.2583 5.05023 13.3792 5.15023 13.4875C5.25023 13.5958 5.3669 13.65 5.50023 13.65C5.5669 13.65 5.63357 13.6333 5.70023 13.6C5.7669 13.5667 5.8169 13.5333 5.85023 13.5L8.55023 10.8C8.73357 10.6167 8.96273 10.5208 9.23773 10.5125C9.51273 10.5042 9.75023 10.6 9.95023 10.8C10.1336 10.9833 10.2252 11.2167 10.2252 11.5C10.2252 11.7833 10.1336 12.0167 9.95023 12.2L7.27523 14.9C7.22523 14.95 7.18773 15.0042 7.16273 15.0625C7.13773 15.1208 7.12523 15.1833 7.12523 15.25C7.12523 15.3833 7.17523 15.5 7.27523 15.6C7.37523 15.7 7.4919 15.75 7.62523 15.75C7.6919 15.75 7.75857 15.7333 7.82523 15.7C7.8919 15.6667 7.9419 15.6333 7.97523 15.6L10.6752 12.925C10.8586 12.7417 11.0877 12.6458 11.3627 12.6375C11.6377 12.6292 11.8752 12.725 12.0752 12.925C12.2586 13.1083 12.3502 13.3417 12.3502 13.625C12.3502 13.9083 12.2586 14.1417 12.0752 14.325L9.40023 17.025C9.35023 17.0583 9.31273 17.1083 9.28773 17.175C9.26273 17.2417 9.25023 17.3083 9.25023 17.375C9.25023 17.5083 9.30023 17.625 9.40023 17.725C9.50023 17.825 9.6169 17.875 9.75023 17.875C9.8169 17.875 9.8794 17.8625 9.93773 17.8375C9.99607 17.8125 10.0502 17.775 10.1002 17.725L12.8002 15.05C12.9836 14.8667 13.2127 14.7708 13.4877 14.7625C13.7627 14.7542 14.0002 14.85 14.2002 15.05C14.3836 15.2333 14.4752 15.4667 14.4752 15.75C14.4752 16.0333 14.3836 16.2667 14.2002 16.45L11.5002 19.15C11.4502 19.2 11.4127 19.2542 11.3877 19.3125C11.3627 19.3708 11.3502 19.4333 11.3502 19.5C11.3502 19.6333 11.4044 19.75 11.5127 19.85C11.6211 19.95 11.7419 20 11.8752 20ZM11.8502 22C11.2336 22 10.6877 21.7958 10.2127 21.3875C9.73773 20.9792 9.45857 20.4667 9.37523 19.85C8.80857 19.7667 8.33357 19.5333 7.95023 19.15C7.5669 18.7667 7.33357 18.2917 7.25023 17.725C6.68357 17.6417 6.21273 17.4042 5.83773 17.0125C5.46273 16.6208 5.23357 16.15 5.15023 15.6C4.5169 15.5167 4.00023 15.2417 3.60023 14.775C3.20023 14.3083 3.00023 13.7583 3.00023 13.125C3.00023 12.7917 3.06273 12.4708 3.18773 12.1625C3.31273 11.8542 3.4919 11.5833 3.72523 11.35L8.10023 6.975C8.48357 6.59167 8.9544 6.4 9.51273 6.4C10.0711 6.4 10.5419 6.59167 10.9252 6.975L12.8002 8.85C12.8336 8.9 12.8836 8.9375 12.9502 8.9625C13.0169 8.9875 13.0836 9 13.1502 9C13.3002 9 13.4252 8.95417 13.5252 8.8625C13.6252 8.77083 13.6752 8.65 13.6752 8.5C13.6752 8.43333 13.6627 8.36667 13.6377 8.3C13.6127 8.23333 13.5752 8.18333 13.5252 8.15L9.95023 4.575C9.7669 4.375 9.5544 4.22917 9.31273 4.1375C9.07107 4.04583 8.8169 4 8.55023 4C8.30023 4 8.05023 4.04583 7.80023 4.1375C7.55023 4.22917 7.32523 4.375 7.12523 4.575L3.60023 8.125C3.45023 8.275 3.32523 8.45 3.22523 8.65C3.12523 8.85 3.05857 9.05 3.02523 9.25C2.9919 9.45 2.9919 9.65417 3.02523 9.8625C3.05857 10.0708 3.12523 10.2667 3.22523 10.45L1.77523 11.9C1.4919 11.5167 1.28357 11.0958 1.15023 10.6375C1.0169 10.1792 0.966901 9.71667 1.00023 9.25C1.03357 8.78333 1.15023 8.32917 1.35023 7.8875C1.55023 7.44583 1.82523 7.05 2.17523 6.7L5.70023 3.175C6.10023 2.79167 6.54607 2.5 7.03773 2.3C7.5294 2.1 8.03357 2 8.55023 2C9.0669 2 9.57107 2.1 10.0627 2.3C10.5544 2.5 10.9919 2.79167 11.3752 3.175L11.6502 3.45L11.9252 3.175C12.3252 2.79167 12.7711 2.5 13.2627 2.3C13.7544 2.1 14.2586 2 14.7752 2C15.2919 2 15.7961 2.1 16.2877 2.3C16.7794 2.5 17.2169 2.79167 17.6002 3.175L21.8252 7.4C22.2086 7.78333 22.5002 8.225 22.7002 8.725C22.9002 9.225 23.0002 9.73333 23.0002 10.25C23.0002 10.7667 22.9002 11.2708 22.7002 11.7625C22.5002 12.2542 22.2086 12.6917 21.8252 13.075L13.6252 21.25C13.3919 21.4833 13.1211 21.6667 12.8127 21.8C12.5044 21.9333 12.1836 22 11.8502 22Z" fill="#1C1B1F"/>
</g>
</svg>
