<svg width="250" height="187" viewBox="0 0 250 187" fill="none" xmlns="http://www.w3.org/2000/svg">
<path d="M243 180L247.5 174L249 167H250V187H230V185.5L237 184.5L243 180Z" fill="#1E1E1E" fill-opacity="0.7"/>
<path d="M243 7L237 2.5L230 1V0L250 0V20H248.5L247.5 13L243 7Z" fill="#1E1E1E" fill-opacity="0.7"/>
<path d="M7 180L13 184.5L20 186V187H0V167H1.5L2.5 174L7 180Z" fill="#1E1E1E" fill-opacity="0.7"/>
<path d="M7 7L2.5 13L1 20H0V0H20V1.5L13 2.5L7 7Z" fill="#1E1E1E" fill-opacity="0.7"/>
<path d="M248.815 167C249.469 167 250.004 167.531 249.965 168.185C249.676 173.057 247.613 177.672 244.142 181.142C240.672 184.613 236.057 186.676 231.185 186.965C230.531 187.004 230 186.469 230 185.815C230 185.16 230.531 184.634 231.184 184.59C235.427 184.305 239.44 182.492 242.466 179.466C245.492 176.44 247.305 172.427 247.59 168.184C247.634 167.531 248.16 167 248.815 167Z" fill="#E1203E"/>
<path d="M230 1.18507C230 0.530572 230.531 -0.00366049 231.185 0.0350767C236.057 0.323958 240.672 2.3873 244.142 5.85786C247.613 9.32843 249.676 13.9432 249.965 18.8155C250.004 19.4688 249.469 20 248.815 20C248.16 20 247.634 19.4687 247.59 18.8157C247.305 14.5725 245.492 10.5598 242.466 7.5338C239.44 4.50782 235.427 2.69544 231.184 2.40992C230.531 2.36598 230 1.83956 230 1.18507Z" fill="#E1203E"/>
<path d="M20 185.815C20 186.469 19.4688 187.004 18.8155 186.965C13.9432 186.676 9.32843 184.613 5.85787 181.142C2.3873 177.672 0.323959 173.057 0.0350769 168.185C-0.00366042 167.531 0.530572 167 1.18507 167C1.83956 167 2.36598 167.531 2.40992 168.184C2.69544 172.427 4.50782 176.44 7.5338 179.466C10.5598 182.492 14.5725 184.305 18.8157 184.59C19.4687 184.634 20 185.16 20 185.815Z" fill="#E1203E"/>
<path d="M1.18507 20C0.530572 20 -0.00366045 19.4688 0.0350768 18.8155C0.323958 13.9432 2.3873 9.32843 5.85786 5.85786C9.32843 2.3873 13.9432 0.323958 18.8155 0.0350767C19.4688 -0.0036605 20 0.530572 20 1.18507C20 1.83956 19.4687 2.36598 18.8157 2.40992C14.5725 2.69544 10.5598 4.50782 7.5338 7.5338C4.50782 10.5598 2.69544 14.5725 2.40992 18.8157C2.36598 19.4687 1.83956 20 1.18507 20Z" fill="#E1203E"/>
</svg>
