<svg width="24" height="24" viewBox="0 0 24 24" fill="none" xmlns="http://www.w3.org/2000/svg">
<path d="M7.03753 20.269L12 16.4836L16.9625 20.269L15.1015 14.0281L19.7539 10.7543H13.9643L12 4.4111L10.0357 10.7543H4.24613L8.89845 14.0281L7.03753 20.269ZM12 19.0807L5.74124 23.7986C5.5212 23.9482 5.29985 24.0144 5.07719 23.9974C4.8545 23.9803 4.65037 23.918 4.46479 23.8105C4.27925 23.7029 4.1381 23.5429 4.04133 23.3304C3.94456 23.1179 3.94258 22.891 4.03538 22.6497L6.42518 14.8781L0.480496 10.6323C0.24371 10.4952 0.0957139 10.3154 0.0365089 10.0927C-0.0226962 9.87003 -0.00989312 9.64983 0.0749169 9.43212C0.159761 9.21437 0.288716 9.03925 0.461782 8.90676C0.634883 8.7743 0.842601 8.70808 1.08494 8.70808H8.56597L10.99 0.775194C11.0757 0.525697 11.2084 0.334124 11.3883 0.200475C11.5681 0.0668251 11.772 0 12 0C12.228 0 12.4319 0.0668251 12.6117 0.200475C12.7916 0.334124 12.9243 0.525697 13.01 0.775194L15.434 8.70808H22.9151C23.1574 8.70808 23.3651 8.7743 23.5382 8.90676C23.7113 9.03925 23.8402 9.21437 23.9251 9.43212C24.0099 9.64983 24.0227 9.87003 23.9635 10.0927C23.9043 10.3154 23.7563 10.4952 23.5195 10.6323L17.5748 14.8781L19.9646 22.6497C20.0574 22.891 20.0554 23.1179 19.9587 23.3304C19.8619 23.5429 19.7207 23.7029 19.5352 23.8105C19.3496 23.918 19.1455 23.9803 18.9228 23.9974C18.7001 24.0144 18.4788 23.9482 18.2588 23.7986L12 19.0807Z" fill="#1C1B1F"/>
</svg>
