<svg width="24" height="24" viewBox="0 0 24 24" fill="none" xmlns="http://www.w3.org/2000/svg">
<path d="M2 14C1.45 14 0.979167 13.8042 0.5875 13.4125C0.195833 13.0208 0 12.55 0 12V6C0 5.8 0.0416667 5.60833 0.125 5.425C0.208333 5.24167 0.316667 5.08333 0.45 4.95L5.4 0L6.15 0.75C6.25 0.85 6.33333 0.979167 6.4 1.1375C6.46667 1.29583 6.5 1.45 6.5 1.6V1.8L5.8 5H11C11.2833 5 11.5208 5.09583 11.7125 5.2875C11.9042 5.47917 12 5.71667 12 6V7.25C12 7.35 11.9917 7.44583 11.975 7.5375C11.9583 7.62917 11.9333 7.71667 11.9 7.8L9.65 13.1C9.53333 13.3833 9.34583 13.6042 9.0875 13.7625C8.82917 13.9208 8.55 14 8.25 14H2ZM7.95 12L10 7.15V7H3.35L3.95 4.3L2 6.2V12H7.95ZM18.6 24L17.85 23.25C17.75 23.15 17.6667 23.0208 17.6 22.8625C17.5333 22.7042 17.5 22.55 17.5 22.4V22.2L18.2 19H13C12.7167 19 12.4792 18.9042 12.2875 18.7125C12.0958 18.5208 12 18.2833 12 18V16.75C12 16.65 12.0083 16.5542 12.025 16.4625C12.0417 16.3708 12.0667 16.2833 12.1 16.2L14.35 10.9C14.4833 10.6167 14.675 10.3958 14.925 10.2375C15.175 10.0792 15.45 10 15.75 10H22C22.55 10 23.0208 10.1958 23.4125 10.5875C23.8042 10.9792 24 11.45 24 12V18C24 18.2 23.9625 18.3875 23.8875 18.5625C23.8125 18.7375 23.7 18.9 23.55 19.05L18.6 24ZM16.05 12L14 16.85V17H20.65L20.05 19.7L22 17.8V12H16.05Z" fill="#1C1B1F"/>
</svg>
