<svg width="15" height="13" viewBox="0 0 15 13" fill="none" xmlns="http://www.w3.org/2000/svg">
<path d="M7.5 13C7.325 13 7.14688 12.9694 6.96563 12.9081C6.78438 12.8468 6.625 12.7487 6.4875 12.6139L5.19375 11.4554C3.86875 10.2664 2.67188 9.08652 1.60313 7.91584C0.534375 6.74517 0 5.45497 0 4.04526C0 2.89298 0.39375 1.93069 1.18125 1.15842C1.96875 0.386139 2.95 0 4.125 0C4.7875 0 5.4125 0.137907 6 0.41372C6.5875 0.689533 7.0875 1.06648 7.5 1.54455C7.9125 1.06648 8.4125 0.689533 9 0.41372C9.5875 0.137907 10.2125 0 10.875 0C12.05 0 13.0313 0.386139 13.8188 1.15842C14.6063 1.93069 15 2.89298 15 4.04526C15 5.45497 14.4688 6.74823 13.4062 7.92503C12.3438 9.10184 11.1375 10.2848 9.7875 11.4738L8.5125 12.6139C8.375 12.7487 8.21563 12.8468 8.03438 12.9081C7.85313 12.9694 7.675 13 7.5 13Z" fill="#E1203E"/>
</svg>
