<svg width="16" height="15" viewBox="0 0 16 15" fill="none" xmlns="http://www.w3.org/2000/svg">
<path d="M8 10.9663C8.2125 10.9663 8.39063 10.8988 8.53438 10.7639C8.67813 10.629 8.75 10.4618 8.75 10.2624V7.44674C8.75 7.2473 8.67813 7.08013 8.53438 6.94521C8.39063 6.8103 8.2125 6.74284 8 6.74284C7.7875 6.74284 7.60938 6.8103 7.46563 6.94521C7.32188 7.08013 7.25 7.2473 7.25 7.44674V10.2624C7.25 10.4618 7.32188 10.629 7.46563 10.7639C7.60938 10.8988 7.7875 10.9663 8 10.9663ZM8 5.33503C8.2125 5.33503 8.39063 5.26758 8.53438 5.13266C8.67813 4.99775 8.75 4.83057 8.75 4.63113C8.75 4.43169 8.67813 4.26452 8.53438 4.1296C8.39063 3.99469 8.2125 3.92723 8 3.92723C7.7875 3.92723 7.60938 3.99469 7.46563 4.1296C7.32188 4.26452 7.25 4.43169 7.25 4.63113C7.25 4.83057 7.32188 4.99775 7.46563 5.13266C7.60938 5.26758 7.7875 5.33503 8 5.33503ZM8 14.4858C6.9625 14.4858 5.9875 14.301 5.075 13.9314C4.1625 13.5619 3.36875 13.0604 2.69375 12.4269C2.01875 11.7933 1.48438 11.0484 1.09063 10.192C0.696875 9.33555 0.5 8.42048 0.5 7.44674C0.5 6.47301 0.696875 5.55794 1.09063 4.70152C1.48438 3.84511 2.01875 3.10014 2.69375 2.46663C3.36875 1.83312 4.1625 1.33159 5.075 0.962038C5.9875 0.592489 6.9625 0.407715 8 0.407715C9.0375 0.407715 10.0125 0.592489 10.925 0.962038C11.8375 1.33159 12.6313 1.83312 13.3063 2.46663C13.9813 3.10014 14.5156 3.84511 14.9094 4.70152C15.3031 5.55794 15.5 6.47301 15.5 7.44674C15.5 8.42048 15.3031 9.33555 14.9094 10.192C14.5156 11.0484 13.9813 11.7933 13.3063 12.4269C12.6313 13.0604 11.8375 13.5619 10.925 13.9314C10.0125 14.301 9.0375 14.4858 8 14.4858ZM8 13.078C9.675 13.078 11.0938 12.5324 12.2563 11.4414C13.4187 10.3503 14 9.01879 14 7.44674C14 5.87469 13.4187 4.54314 12.2563 3.45209C11.0938 2.36105 9.675 1.81552 8 1.81552C6.325 1.81552 4.90625 2.36105 3.74375 3.45209C2.58125 4.54314 2 5.87469 2 7.44674C2 9.01879 2.58125 10.3503 3.74375 11.4414C4.90625 12.5324 6.325 13.078 8 13.078Z" fill="#1C1B1F"/>
</svg>
