<svg width="14" height="14" viewBox="0 0 14 14" fill="none" xmlns="http://www.w3.org/2000/svg">
<path d="M7.00016 13.6666C6.07794 13.6666 5.21127 13.4916 4.40016 13.1416C3.58905 12.7916 2.8835 12.3166 2.2835 11.7166C1.6835 11.1166 1.2085 10.411 0.858496 9.59992C0.508496 8.78881 0.333496 7.92214 0.333496 6.99992C0.333496 6.0777 0.508496 5.21103 0.858496 4.39992C1.2085 3.58881 1.6835 2.88325 2.2835 2.28325C2.8835 1.68325 3.58905 1.20825 4.40016 0.858252C5.21127 0.508252 6.07794 0.333252 7.00016 0.333252C7.92238 0.333252 8.78905 0.508252 9.60016 0.858252C10.4113 1.20825 11.1168 1.68325 11.7168 2.28325C12.3168 2.88325 12.7918 3.58881 13.1418 4.39992C13.4918 5.21103 13.6668 6.0777 13.6668 6.99992C13.6668 7.92214 13.4918 8.78881 13.1418 9.59992C12.7918 10.411 12.3168 11.1166 11.7168 11.7166C11.1168 12.3166 10.4113 12.7916 9.60016 13.1416C8.78905 13.4916 7.92238 13.6666 7.00016 13.6666ZM7.00016 12.3333C8.48905 12.3333 9.75016 11.8166 10.7835 10.7833C11.8168 9.74992 12.3335 8.48881 12.3335 6.99992C12.3335 5.51103 11.8168 4.24992 10.7835 3.21659C9.75016 2.18325 8.48905 1.66659 7.00016 1.66659C5.51127 1.66659 4.25016 2.18325 3.21683 3.21659C2.1835 4.24992 1.66683 5.51103 1.66683 6.99992C1.66683 8.48881 2.1835 9.74992 3.21683 10.7833C4.25016 11.8166 5.51127 12.3333 7.00016 12.3333Z" fill="#898989"/>
</svg>
