<svg width="14" height="14" viewBox="0 0 14 14" fill="none" xmlns="http://www.w3.org/2000/svg">
<path d="M7.00016 13.6666C6.07794 13.6666 5.21127 13.4916 4.40016 13.1416C3.58905 12.7916 2.8835 12.3166 2.2835 11.7166C1.6835 11.1166 1.2085 10.411 0.858496 9.59992C0.508496 8.78881 0.333496 7.92214 0.333496 6.99992C0.333496 6.0777 0.508496 5.21103 0.858496 4.39992C1.2085 3.58881 1.6835 2.88325 2.2835 2.28325C2.8835 1.68325 3.58905 1.20825 4.40016 0.858252C5.21127 0.508252 6.07794 0.333252 7.00016 0.333252C7.5335 0.333252 8.05294 0.394363 8.5585 0.516585C9.06405 0.638808 9.55016 0.816585 10.0168 1.04992C10.1835 1.13881 10.2918 1.27214 10.3418 1.44992C10.3918 1.6277 10.3613 1.79436 10.2502 1.94992C10.1391 2.10547 9.99183 2.20547 9.8085 2.24992C9.62516 2.29436 9.44461 2.27214 9.26683 2.18325C8.91127 2.01659 8.54183 1.88881 8.1585 1.79992C7.77516 1.71103 7.38905 1.66659 7.00016 1.66659C5.52238 1.66659 4.26405 2.18603 3.22516 3.22492C2.18627 4.26381 1.66683 5.52214 1.66683 6.99992C1.66683 8.4777 2.18627 9.73603 3.22516 10.7749C4.26405 11.8138 5.52238 12.3333 7.00016 12.3333C8.47794 12.3333 9.73627 11.8138 10.7752 10.7749C11.8141 9.73603 12.3335 8.4777 12.3335 6.99992C12.3335 6.91103 12.3307 6.82492 12.3252 6.74159C12.3196 6.65825 12.3113 6.57214 12.3002 6.48325C12.2779 6.29436 12.3141 6.11381 12.4085 5.94159C12.5029 5.76936 12.6446 5.65547 12.8335 5.59992C13.0113 5.54436 13.1779 5.56103 13.3335 5.64992C13.4891 5.73881 13.5779 5.87214 13.6002 6.04992C13.6224 6.20547 13.6391 6.36103 13.6502 6.51659C13.6613 6.67214 13.6668 6.83325 13.6668 6.99992C13.6668 7.92214 13.4918 8.78881 13.1418 9.59992C12.7918 10.411 12.3168 11.1166 11.7168 11.7166C11.1168 12.3166 10.4113 12.7916 9.60016 13.1416C8.78905 13.4916 7.92238 13.6666 7.00016 13.6666ZM6.06683 8.19992L12.2668 1.98325C12.3891 1.86103 12.5418 1.79714 12.7252 1.79159C12.9085 1.78603 13.0668 1.84992 13.2002 1.98325C13.3224 2.10547 13.3835 2.26103 13.3835 2.44992C13.3835 2.63881 13.3224 2.79436 13.2002 2.91659L6.5335 9.59992C6.40016 9.73325 6.24461 9.79992 6.06683 9.79992C5.88905 9.79992 5.7335 9.73325 5.60016 9.59992L3.70016 7.69992C3.57794 7.5777 3.51683 7.42214 3.51683 7.23325C3.51683 7.04436 3.57794 6.88881 3.70016 6.76659C3.82238 6.64436 3.97794 6.58325 4.16683 6.58325C4.35572 6.58325 4.51127 6.64436 4.6335 6.76659L6.06683 8.19992Z" fill="#E1203E"/>
</svg>
