<svg width="111" height="111" viewBox="0 0 111 111" fill="none" xmlns="http://www.w3.org/2000/svg">
<path d="M55.9997 98.3333C60.0622 98.3333 63.9215 97.7916 67.5778 96.7083C71.234 95.6249 74.6872 94.1353 77.9372 92.2395L56.9476 71.2499L52.208 75.9895C51.1247 77.0728 49.8382 77.6145 48.3486 77.6145C46.859 77.6145 45.5726 77.0728 44.4893 75.9895L29.1872 60.6874C28.1941 59.6944 27.6976 58.4305 27.6976 56.8958C27.6976 55.361 28.1941 54.0971 29.1872 53.1041C30.1802 52.111 31.4441 51.6145 32.9788 51.6145C34.5136 51.6145 35.7775 52.111 36.7705 53.1041L48.4163 64.7499L49.3643 63.6666L18.7601 33.0624C16.8643 36.3124 15.3747 39.7655 14.2913 43.4218C13.208 47.078 12.6663 50.9374 12.6663 54.9999C12.6663 67.0069 16.8868 77.2308 25.3278 85.6718C33.7688 94.1128 43.9927 98.3333 55.9997 98.3333ZM72.5205 55.8124L64.9372 48.2291L75.2288 37.9374C76.2219 36.9444 77.4858 36.4478 79.0205 36.4478C80.5552 36.4478 81.8191 36.9444 82.8122 37.9374C83.8052 38.9305 84.3018 40.1944 84.3018 41.7291C84.3018 43.2638 83.8052 44.5277 82.8122 45.5208L72.5205 55.8124ZM94.3226 108.625L85.7913 100.229C81.3677 103.118 76.6507 105.33 71.6403 106.865C66.6299 108.399 61.4163 109.167 55.9997 109.167C48.5066 109.167 41.465 107.745 34.8747 104.901C28.2844 102.057 22.5518 98.1978 17.6768 93.3228C12.8018 88.4478 8.94238 82.7152 6.09863 76.1249C3.25488 69.5346 1.83301 62.493 1.83301 54.9999C1.83301 49.5833 2.60037 44.3697 4.13509 39.3593C5.66981 34.3489 7.88162 29.6319 10.7705 25.2083L2.23926 16.677C1.15592 15.5937 0.614258 14.3072 0.614258 12.8176C0.614258 11.328 1.15592 10.0416 2.23926 8.95825C3.32259 7.87492 4.60905 7.33325 6.09863 7.33325C7.58822 7.33325 8.87467 7.87492 9.95801 8.95825L102.041 101.042C103.125 102.125 103.666 103.389 103.666 104.833C103.666 106.278 103.125 107.542 102.041 108.625C100.958 109.708 99.6715 110.25 98.182 110.25C96.6924 110.25 95.4059 109.708 94.3226 108.625ZM55.9997 11.6666C53.0205 11.6666 50.1091 11.96 47.2653 12.5468C44.4216 13.1336 41.6455 14.0138 38.9372 15.1874C37.4927 15.8194 36.0483 15.9096 34.6038 15.4583C33.1594 15.0069 32.0761 14.1492 31.3538 12.8853C30.6316 11.6214 30.4736 10.2673 30.8799 8.82283C31.2861 7.37839 32.1663 6.3402 33.5205 5.70825C37.0413 4.08325 40.675 2.8645 44.4216 2.052C48.1681 1.2395 52.0275 0.833252 55.9997 0.833252C63.4927 0.833252 70.5344 2.25513 77.1247 5.09888C83.715 7.94263 89.4476 11.802 94.3226 16.677C99.1976 21.552 103.057 27.2846 105.901 33.8749C108.744 40.4652 110.166 47.5069 110.166 54.9999C110.166 58.9721 109.76 62.8315 108.948 66.578C108.135 70.3246 106.916 73.9583 105.291 77.4791C104.659 78.8333 103.621 79.7135 102.177 80.1197C100.732 80.526 99.3781 80.368 98.1143 79.6458C96.8504 78.9235 95.9927 77.8402 95.5413 76.3958C95.09 74.9513 95.1802 73.5069 95.8122 72.0624C96.9858 69.3541 97.866 66.578 98.4528 63.7343C99.0396 60.8905 99.333 57.9791 99.333 54.9999C99.333 42.993 95.1125 32.769 86.6715 24.328C78.2306 15.8871 68.0066 11.6666 55.9997 11.6666Z" fill="#E1203E"/>
</svg>
